<mxfile host="app.diagrams.net" modified="2023-11-30T12:46:59.905Z" agent="Mozilla/5.0 (Macintosh; Intel Mac OS X 10_15_7) AppleWebKit/605.1.15 (KHTML, like Gecko) Version/17.1 Safari/605.1.15" etag="CINUHds57Vn5FtDxfK3v" version="22.1.5" type="device">
  <diagram name="Page-1" id="56T4i9o3iqgxtPMCRIvI">
    <mxGraphModel dx="1242" dy="804" grid="1" gridSize="10" guides="1" tooltips="1" connect="1" arrows="1" fold="1" page="1" pageScale="1" pageWidth="827" pageHeight="1169" math="0" shadow="0">
      <root>
        <mxCell id="0" />
        <mxCell id="1" parent="0" />
        <mxCell id="HXSUiqNPdbrsBtVOjVxd-5" style="rounded=0;orthogonalLoop=1;jettySize=auto;html=1;exitX=1;exitY=0;exitDx=0;exitDy=0;entryX=0;entryY=0.5;entryDx=0;entryDy=0;" edge="1" parent="1" source="HXSUiqNPdbrsBtVOjVxd-1" target="HXSUiqNPdbrsBtVOjVxd-2">
          <mxGeometry relative="1" as="geometry" />
        </mxCell>
        <mxCell id="HXSUiqNPdbrsBtVOjVxd-22" value="1. Send API" style="edgeLabel;html=1;align=center;verticalAlign=middle;resizable=0;points=[];" vertex="1" connectable="0" parent="HXSUiqNPdbrsBtVOjVxd-5">
          <mxGeometry x="0.0159" relative="1" as="geometry">
            <mxPoint as="offset" />
          </mxGeometry>
        </mxCell>
        <mxCell id="HXSUiqNPdbrsBtVOjVxd-6" style="edgeStyle=orthogonalEdgeStyle;rounded=0;orthogonalLoop=1;jettySize=auto;html=1;exitX=1;exitY=0.5;exitDx=0;exitDy=0;entryX=0;entryY=0.5;entryDx=0;entryDy=0;" edge="1" parent="1" source="HXSUiqNPdbrsBtVOjVxd-1" target="HXSUiqNPdbrsBtVOjVxd-3">
          <mxGeometry relative="1" as="geometry" />
        </mxCell>
        <mxCell id="HXSUiqNPdbrsBtVOjVxd-23" value="2. Send query for status" style="edgeLabel;html=1;align=center;verticalAlign=middle;resizable=0;points=[];" vertex="1" connectable="0" parent="HXSUiqNPdbrsBtVOjVxd-6">
          <mxGeometry x="-0.2435" y="-2" relative="1" as="geometry">
            <mxPoint as="offset" />
          </mxGeometry>
        </mxCell>
        <mxCell id="HXSUiqNPdbrsBtVOjVxd-7" style="rounded=0;orthogonalLoop=1;jettySize=auto;html=1;exitX=1;exitY=1;exitDx=0;exitDy=0;entryX=0;entryY=0.5;entryDx=0;entryDy=0;" edge="1" parent="1" source="HXSUiqNPdbrsBtVOjVxd-1" target="HXSUiqNPdbrsBtVOjVxd-4">
          <mxGeometry relative="1" as="geometry" />
        </mxCell>
        <mxCell id="HXSUiqNPdbrsBtVOjVxd-30" style="edgeStyle=orthogonalEdgeStyle;rounded=0;orthogonalLoop=1;jettySize=auto;html=1;exitX=0;exitY=1;exitDx=0;exitDy=0;" edge="1" parent="1" source="HXSUiqNPdbrsBtVOjVxd-1" target="HXSUiqNPdbrsBtVOjVxd-19">
          <mxGeometry relative="1" as="geometry">
            <Array as="points">
              <mxPoint x="180" y="518" />
              <mxPoint x="180" y="518" />
            </Array>
          </mxGeometry>
        </mxCell>
        <mxCell id="HXSUiqNPdbrsBtVOjVxd-31" value="Return the results" style="edgeLabel;html=1;align=center;verticalAlign=middle;resizable=0;points=[];" vertex="1" connectable="0" parent="HXSUiqNPdbrsBtVOjVxd-30">
          <mxGeometry x="0.2489" y="4" relative="1" as="geometry">
            <mxPoint as="offset" />
          </mxGeometry>
        </mxCell>
        <mxCell id="HXSUiqNPdbrsBtVOjVxd-1" value="Orchestrator" style="ellipse;whiteSpace=wrap;html=1;aspect=fixed;" vertex="1" parent="1">
          <mxGeometry x="320" y="450" width="80" height="80" as="geometry" />
        </mxCell>
        <mxCell id="HXSUiqNPdbrsBtVOjVxd-2" value="Runner" style="ellipse;whiteSpace=wrap;html=1;aspect=fixed;" vertex="1" parent="1">
          <mxGeometry x="630" y="340" width="80" height="80" as="geometry" />
        </mxCell>
        <mxCell id="HXSUiqNPdbrsBtVOjVxd-13" style="edgeStyle=orthogonalEdgeStyle;rounded=0;orthogonalLoop=1;jettySize=auto;html=1;exitX=1;exitY=0.5;exitDx=0;exitDy=0;" edge="1" parent="1" source="HXSUiqNPdbrsBtVOjVxd-3">
          <mxGeometry relative="1" as="geometry">
            <mxPoint x="400" y="680" as="targetPoint" />
            <Array as="points">
              <mxPoint x="730" y="490" />
              <mxPoint x="730" y="680" />
            </Array>
          </mxGeometry>
        </mxCell>
        <mxCell id="HXSUiqNPdbrsBtVOjVxd-3" value="Runner" style="ellipse;whiteSpace=wrap;html=1;aspect=fixed;" vertex="1" parent="1">
          <mxGeometry x="630" y="450" width="80" height="80" as="geometry" />
        </mxCell>
        <mxCell id="HXSUiqNPdbrsBtVOjVxd-4" value="Runner" style="ellipse;whiteSpace=wrap;html=1;aspect=fixed;" vertex="1" parent="1">
          <mxGeometry x="630" y="560" width="80" height="80" as="geometry" />
        </mxCell>
        <mxCell id="HXSUiqNPdbrsBtVOjVxd-17" style="edgeStyle=orthogonalEdgeStyle;rounded=0;orthogonalLoop=1;jettySize=auto;html=1;exitX=0;exitY=0.5;exitDx=0;exitDy=0;exitPerimeter=0;entryX=0.5;entryY=1;entryDx=0;entryDy=0;" edge="1" parent="1" source="HXSUiqNPdbrsBtVOjVxd-10" target="HXSUiqNPdbrsBtVOjVxd-1">
          <mxGeometry relative="1" as="geometry" />
        </mxCell>
        <mxCell id="HXSUiqNPdbrsBtVOjVxd-18" value="Fetch and organise results" style="edgeLabel;html=1;align=center;verticalAlign=middle;resizable=0;points=[];" vertex="1" connectable="0" parent="HXSUiqNPdbrsBtVOjVxd-17">
          <mxGeometry x="0.0374" y="1" relative="1" as="geometry">
            <mxPoint as="offset" />
          </mxGeometry>
        </mxCell>
        <mxCell id="HXSUiqNPdbrsBtVOjVxd-10" value="" style="shape=cylinder3;whiteSpace=wrap;html=1;boundedLbl=1;backgroundOutline=1;size=15;rotation=91;" vertex="1" parent="1">
          <mxGeometry x="330" y="640" width="60" height="80" as="geometry" />
        </mxCell>
        <mxCell id="HXSUiqNPdbrsBtVOjVxd-12" style="edgeStyle=orthogonalEdgeStyle;rounded=0;orthogonalLoop=1;jettySize=auto;html=1;exitX=1;exitY=0.5;exitDx=0;exitDy=0;entryX=0.5;entryY=0;entryDx=0;entryDy=0;entryPerimeter=0;" edge="1" parent="1" source="HXSUiqNPdbrsBtVOjVxd-4" target="HXSUiqNPdbrsBtVOjVxd-10">
          <mxGeometry relative="1" as="geometry" />
        </mxCell>
        <mxCell id="HXSUiqNPdbrsBtVOjVxd-15" style="edgeStyle=orthogonalEdgeStyle;rounded=0;orthogonalLoop=1;jettySize=auto;html=1;exitX=1;exitY=0.5;exitDx=0;exitDy=0;entryX=0.5;entryY=0;entryDx=0;entryDy=0;entryPerimeter=0;" edge="1" parent="1" source="HXSUiqNPdbrsBtVOjVxd-2" target="HXSUiqNPdbrsBtVOjVxd-10">
          <mxGeometry relative="1" as="geometry" />
        </mxCell>
        <mxCell id="HXSUiqNPdbrsBtVOjVxd-16" value="Return the result back to a MQ" style="edgeLabel;html=1;align=center;verticalAlign=middle;resizable=0;points=[];" vertex="1" connectable="0" parent="HXSUiqNPdbrsBtVOjVxd-15">
          <mxGeometry x="0.5635" y="3" relative="1" as="geometry">
            <mxPoint as="offset" />
          </mxGeometry>
        </mxCell>
        <mxCell id="HXSUiqNPdbrsBtVOjVxd-20" style="edgeStyle=orthogonalEdgeStyle;rounded=0;orthogonalLoop=1;jettySize=auto;html=1;exitX=1;exitY=0.3333333333333333;exitDx=0;exitDy=0;exitPerimeter=0;" edge="1" parent="1" source="HXSUiqNPdbrsBtVOjVxd-19" target="HXSUiqNPdbrsBtVOjVxd-1">
          <mxGeometry relative="1" as="geometry" />
        </mxCell>
        <mxCell id="HXSUiqNPdbrsBtVOjVxd-21" value="Send APIs that need to monitor" style="edgeLabel;html=1;align=center;verticalAlign=middle;resizable=0;points=[];" vertex="1" connectable="0" parent="HXSUiqNPdbrsBtVOjVxd-20">
          <mxGeometry x="-0.1111" y="4" relative="1" as="geometry">
            <mxPoint as="offset" />
          </mxGeometry>
        </mxCell>
        <mxCell id="HXSUiqNPdbrsBtVOjVxd-19" value="Actor" style="shape=umlActor;verticalLabelPosition=bottom;verticalAlign=top;html=1;outlineConnect=0;" vertex="1" parent="1">
          <mxGeometry x="110" y="470" width="30" height="60" as="geometry" />
        </mxCell>
        <mxCell id="HXSUiqNPdbrsBtVOjVxd-32" style="edgeStyle=orthogonalEdgeStyle;rounded=0;orthogonalLoop=1;jettySize=auto;html=1;exitX=0;exitY=1;exitDx=0;exitDy=0;" edge="1" parent="1" source="HXSUiqNPdbrsBtVOjVxd-24" target="HXSUiqNPdbrsBtVOjVxd-25">
          <mxGeometry relative="1" as="geometry">
            <Array as="points">
              <mxPoint x="190" y="188" />
              <mxPoint x="190" y="188" />
            </Array>
          </mxGeometry>
        </mxCell>
        <mxCell id="HXSUiqNPdbrsBtVOjVxd-33" value="Return the results" style="edgeLabel;html=1;align=center;verticalAlign=middle;resizable=0;points=[];" vertex="1" connectable="0" parent="HXSUiqNPdbrsBtVOjVxd-32">
          <mxGeometry x="-0.1475" y="-2" relative="1" as="geometry">
            <mxPoint as="offset" />
          </mxGeometry>
        </mxCell>
        <mxCell id="HXSUiqNPdbrsBtVOjVxd-24" value="Orchestrator" style="ellipse;whiteSpace=wrap;html=1;aspect=fixed;" vertex="1" parent="1">
          <mxGeometry x="320" y="120" width="80" height="80" as="geometry" />
        </mxCell>
        <mxCell id="HXSUiqNPdbrsBtVOjVxd-26" style="edgeStyle=orthogonalEdgeStyle;rounded=0;orthogonalLoop=1;jettySize=auto;html=1;exitX=1;exitY=0.3333333333333333;exitDx=0;exitDy=0;exitPerimeter=0;entryX=0;entryY=0.5;entryDx=0;entryDy=0;" edge="1" parent="1" source="HXSUiqNPdbrsBtVOjVxd-25" target="HXSUiqNPdbrsBtVOjVxd-24">
          <mxGeometry relative="1" as="geometry" />
        </mxCell>
        <mxCell id="HXSUiqNPdbrsBtVOjVxd-27" value="Send APIs that need to monitor" style="edgeLabel;html=1;align=center;verticalAlign=middle;resizable=0;points=[];" vertex="1" connectable="0" parent="HXSUiqNPdbrsBtVOjVxd-26">
          <mxGeometry x="0.1333" y="2" relative="1" as="geometry">
            <mxPoint as="offset" />
          </mxGeometry>
        </mxCell>
        <mxCell id="HXSUiqNPdbrsBtVOjVxd-25" value="Actor" style="shape=umlActor;verticalLabelPosition=bottom;verticalAlign=top;html=1;outlineConnect=0;" vertex="1" parent="1">
          <mxGeometry x="110" y="140" width="30" height="60" as="geometry" />
        </mxCell>
        <mxCell id="HXSUiqNPdbrsBtVOjVxd-28" style="edgeStyle=orthogonalEdgeStyle;rounded=0;orthogonalLoop=1;jettySize=auto;html=1;exitX=0.5;exitY=0;exitDx=0;exitDy=0;entryX=1;entryY=0.5;entryDx=0;entryDy=0;" edge="1" parent="1" source="HXSUiqNPdbrsBtVOjVxd-24" target="HXSUiqNPdbrsBtVOjVxd-24">
          <mxGeometry relative="1" as="geometry" />
        </mxCell>
        <mxCell id="HXSUiqNPdbrsBtVOjVxd-29" value="Monitor the APIs" style="edgeLabel;html=1;align=center;verticalAlign=middle;resizable=0;points=[];" vertex="1" connectable="0" parent="HXSUiqNPdbrsBtVOjVxd-28">
          <mxGeometry x="-0.15" relative="1" as="geometry">
            <mxPoint as="offset" />
          </mxGeometry>
        </mxCell>
      </root>
    </mxGraphModel>
  </diagram>
</mxfile>
